<svg width="14" height="12" viewBox="0 0 14 12" fill="none" xmlns="http://www.w3.org/2000/svg">
<path fill-rule="evenodd" clip-rule="evenodd" d="M9.159 10.0542C9.08531 10.1571 9.02621 10.2812 8.98522 10.419C8.94423 10.5568 8.92218 10.7056 8.92041 10.8565C8.91863 11.0074 8.93716 11.1573 8.97488 11.2972C9.0126 11.4371 9.06874 11.5642 9.13996 11.6709C9.21118 11.7776 9.29601 11.8617 9.3894 11.9182C9.48279 11.9747 9.58282 12.0025 9.68352 11.9998C9.78422 11.9972 9.88354 11.9641 9.97554 11.9027C10.0675 11.8413 10.1503 11.7528 10.219 11.6424L13.469 6.77314L14 5.97908L13.47 5.18502L10.22 0.315799C10.0786 0.111012 9.8892 -0.00238238 9.69255 3.79639e-05C9.4959 0.00245831 9.30775 0.1205 9.16863 0.32874C9.02951 0.53698 8.95054 0.818755 8.94874 1.11338C8.94694 1.408 9.02245 1.69189 9.159 1.90392L11.129 4.85541H0.75C0.551088 4.85541 0.360322 4.9738 0.21967 5.18453C0.0790176 5.39526 0 5.68107 0 5.97908C0 6.27709 0.0790176 6.5629 0.21967 6.77363C0.360322 6.98436 0.551088 7.10275 0.75 7.10275H11.129L9.159 10.0542Z" fill="black"/>
</svg>
